<svg version="1.1" preserveAspectRatio="none" xmlns="http://www.w3.org/2000/svg" width="500" height="500" viewBox="0 0 500 500"><rect width="100%" height="100%" fill="#0A0A0A" fill-opacity="1"/><svg viewBox="75.0857 236.3355 399.7326 220" width="333" height="183.2725176780678" x="83.5px" y="158.3637px" xmlns="http://www.w3.org/2000/svg" xmlns:xlink="http://www.w3.org/1999/xlink" preserveAspectRatio="none"><defs></defs><style>.companyName {fill:#E9E9E9;fill-opacity:1;}.icon2 {fill:#7065EF;fill-opacity:1;}.icon3 {fill:#C4C4C4;fill-opacity:1;}.icon3-str {stroke:#C4C4C4;stroke-opacity:1;}.shape {fill:#28208C;fill-opacity:1;}.text {fill:#E9E9E9;fill-opacity:1;}</style><g opacity="1" transform="rotate(0 109.3792 236.3355)">
<svg width="331.1457" height="220" x="109.3792" y="236.3355" version="1.1" preserveAspectRatio="none" viewBox="4.200999736785889 21.96699905395508 89.02999114990234 59.14799880981445">
  <g transform="matrix(1 0 0 1 0 0)" class="shape"><g><circle cx="46.796" cy="22.734" r="0.767"></circle><circle cx="46.796" cy="26.58" r="0.886"></circle><circle cx="46.796" cy="30.425" r="1.004"></circle><circle cx="46.797" cy="34.271" r="1.12"></circle><circle cx="46.796" cy="38.079" r="1.24"></circle><circle cx="46.797" cy="41.963" r="1.356"></circle><circle cx="46.797" cy="45.809" r="1.476"></circle><circle cx="43.004" cy="22.734" r="0.767"></circle><circle cx="43.004" cy="26.58" r="0.886"></circle><circle cx="43.004" cy="30.425" r="1.004"></circle><circle cx="43.004" cy="34.271" r="1.12"></circle><circle cx="43.004" cy="38.079" r="1.24"></circle><circle cx="43.004" cy="41.963" r="1.356"></circle><circle cx="43.004" cy="80.348" r="0.767"></circle><circle cx="43.004" cy="76.57" r="0.886"></circle><circle cx="43.004" cy="72.723" r="1.003"></circle><circle cx="43.004" cy="68.876" r="1.121"></circle><circle cx="43.004" cy="65.031" r="1.239"></circle><circle cx="43.004" cy="61.186" r="1.356"></circle><circle cx="46.796" cy="80.348" r="0.767"></circle><circle cx="46.796" cy="76.57" r="0.886"></circle><circle cx="46.796" cy="72.723" r="1.003"></circle><circle cx="46.797" cy="68.876" r="1.121"></circle><circle cx="46.796" cy="65.031" r="1.239"></circle><circle cx="46.797" cy="61.186" r="1.356"></circle><circle cx="43.004" cy="45.809" r="1.476"></circle><circle cx="46.797" cy="49.447" r="1.476"></circle><circle cx="43.004" cy="49.447" r="1.476"></circle><circle cx="46.797" cy="53.083" r="1.475"></circle><circle cx="43.004" cy="53.083" r="1.475"></circle><circle cx="46.797" cy="57.024" r="1.475"></circle><circle cx="50.594" cy="22.734" r="0.767"></circle><circle cx="50.591" cy="26.58" r="0.886"></circle><circle cx="50.586" cy="30.425" r="1.004"></circle><circle cx="50.582" cy="34.271" r="1.12"></circle><circle cx="50.578" cy="38.079" r="1.24"></circle><circle cx="50.573" cy="41.963" r="1.356"></circle><circle cx="50.57" cy="45.809" r="1.476"></circle><circle cx="50.594" cy="80.348" r="0.767"></circle><circle cx="50.591" cy="76.57" r="0.886"></circle><circle cx="50.586" cy="72.723" r="1.003"></circle><circle cx="50.582" cy="68.876" r="1.121"></circle><circle cx="50.578" cy="65.031" r="1.239"></circle><circle cx="50.573" cy="61.186" r="1.356"></circle><circle cx="50.57" cy="49.447" r="1.476"></circle><circle cx="50.57" cy="53.083" r="1.475"></circle><circle cx="50.57" cy="57.024" r="1.475"></circle><circle cx="54.53" cy="76.57" r="0.886"></circle><circle cx="54.525" cy="72.723" r="1.003"></circle><circle cx="54.522" cy="68.876" r="1.121"></circle><circle cx="54.52" cy="65.031" r="1.239"></circle><circle cx="58.309" cy="49.571" r="1.24"></circle><circle cx="62.145" cy="49.571" r="1.144"></circle><circle cx="65.983" cy="49.571" r="1.049"></circle><circle cx="69.821" cy="49.571" r="0.954"></circle><circle cx="73.659" cy="49.571" r="0.859"></circle><circle cx="77.497" cy="49.571" r="0.763"></circle><circle cx="81.334" cy="49.571" r="0.668"></circle><circle cx="85.172" cy="49.571" r="0.573"></circle><circle cx="89.01" cy="49.571" r="0.479"></circle><circle cx="92.848" cy="49.571" r="0.383"></circle><path d="M35.535,52.165c0.684,0,1.239,0.553,1.239,1.238s-0.556,1.24-1.239,1.24s-1.238-0.555-1.238-1.24   C34.297,52.722,34.852,52.165,35.535,52.165z"></path><circle cx="31.698" cy="53.403" r="1.144"></circle><circle cx="27.713" cy="53.403" r="0.764"></circle><circle cx="23.876" cy="53.403" r="0.668"></circle><circle cx="20.038" cy="53.403" r="0.573"></circle><circle cx="16.2" cy="53.403" r="0.479"></circle><circle cx="12.363" cy="53.403" r="0.383"></circle><circle cx="58.356" cy="57.149" r="1.144"></circle><circle cx="62.194" cy="57.149" r="1.049"></circle><circle cx="66.032" cy="57.149" r="0.953"></circle><circle cx="69.87" cy="57.149" r="0.858"></circle><circle cx="73.707" cy="57.149" r="0.763"></circle><circle cx="77.545" cy="57.149" r="0.669"></circle><circle cx="81.383" cy="57.149" r="0.572"></circle><circle cx="85.221" cy="57.149" r="0.479"></circle><circle cx="89.058" cy="57.149" r="0.383"></circle><circle cx="58.356" cy="60.788" r="1.144"></circle><circle cx="62.194" cy="60.788" r="1.049"></circle><circle cx="66.032" cy="60.788" r="0.953"></circle><path d="M70.729,60.788c0,0.473-0.384,0.857-0.859,0.857c-0.474,0-0.857-0.385-0.857-0.857c0-0.477,0.384-0.859,0.857-0.859   C70.345,59.929,70.729,60.312,70.729,60.788z"></path><circle cx="73.707" cy="60.788" r="0.763"></circle><circle cx="77.545" cy="60.788" r="0.669"></circle><circle cx="81.383" cy="60.788" r="0.572"></circle><circle cx="85.221" cy="60.788" r="0.479"></circle><circle cx="89.058" cy="60.788" r="0.383"></circle><circle cx="58.449" cy="65.032" r="0.668"></circle><circle cx="62.286" cy="65.032" r="0.573"></circle><circle cx="66.124" cy="65.032" r="0.477"></circle><circle cx="69.963" cy="65.031" r="0.384"></circle><circle cx="58.449" cy="68.972" r="0.668"></circle><circle cx="62.286" cy="68.972" r="0.573"></circle><circle cx="66.124" cy="68.972" r="0.477"></circle><circle cx="69.963" cy="68.973" r="0.382"></circle><circle cx="58.449" cy="72.761" r="0.668"></circle><circle cx="62.286" cy="72.761" r="0.573"></circle><circle cx="66.124" cy="72.761" r="0.477"></circle><circle cx="69.963" cy="72.762" r="0.382"></circle><path d="M59.117,76.548c0,0.369-0.3,0.67-0.669,0.67s-0.668-0.301-0.668-0.67c0-0.367,0.299-0.666,0.668-0.666   S59.117,76.181,59.117,76.548z"></path><path d="M62.858,76.548c0,0.318-0.255,0.576-0.572,0.576c-0.316,0-0.573-0.258-0.573-0.576c0-0.314,0.257-0.57,0.573-0.57   C62.604,75.978,62.858,76.233,62.858,76.548z"></path><path d="M66.601,76.548c0,0.264-0.212,0.48-0.478,0.48c-0.263,0-0.477-0.217-0.477-0.48c0-0.262,0.214-0.477,0.477-0.477   C66.389,76.071,66.601,76.286,66.601,76.548z"></path><circle cx="39.236" cy="80.348" r="0.767"></circle><circle cx="35.301" cy="80.349" r="0.573"></circle><circle cx="31.464" cy="80.349" r="0.478"></circle><circle cx="27.627" cy="80.349" r="0.383"></circle><circle cx="58.309" cy="53.209" r="1.239"></circle><circle cx="62.145" cy="53.21" r="1.144"></circle><circle cx="65.983" cy="53.21" r="1.049"></circle><circle cx="69.821" cy="53.21" r="0.954"></circle><circle cx="73.659" cy="53.21" r="0.859"></circle><circle cx="77.497" cy="53.21" r="0.763"></circle><circle cx="81.334" cy="53.21" r="0.668"></circle><circle cx="85.172" cy="53.21" r="0.573"></circle><circle cx="89.01" cy="53.21" r="0.479"></circle><circle cx="54.514" cy="61.186" r="1.356"></circle><circle cx="54.511" cy="49.447" r="1.476"></circle><circle cx="58.309" cy="45.783" r="1.239"></circle><circle cx="62.145" cy="45.782" r="1.144"></circle><circle cx="65.983" cy="45.782" r="1.049"></circle><circle cx="69.821" cy="45.782" r="0.954"></circle><circle cx="73.659" cy="45.782" r="0.859"></circle><circle cx="77.497" cy="45.782" r="0.763"></circle><path d="M82.002,45.782c0,0.369-0.299,0.67-0.667,0.67c-0.369,0-0.669-0.301-0.669-0.67c0-0.367,0.3-0.668,0.669-0.668   C81.703,45.114,82.002,45.415,82.002,45.782z"></path><circle cx="85.172" cy="45.782" r="0.573"></circle><circle cx="89.01" cy="45.782" r="0.479"></circle><circle cx="92.848" cy="45.782" r="0.383"></circle><circle cx="35.441" cy="45.632" r="0.954"></circle><circle cx="31.604" cy="45.632" r="0.858"></circle><circle cx="27.766" cy="45.632" r="0.764"></circle><circle cx="23.928" cy="45.632" r="0.668"></circle><circle cx="20.09" cy="45.632" r="0.573"></circle><circle cx="16.252" cy="45.632" r="0.478"></circle><circle cx="12.414" cy="45.631" r="0.382"></circle><circle cx="35.368" cy="30.323" r="0.574"></circle><circle cx="31.529" cy="30.323" r="0.479"></circle><circle cx="27.692" cy="30.323" r="0.383"></circle><circle cx="35.368" cy="34.265" r="0.689"></circle><circle cx="31.529" cy="34.265" r="0.479"></circle><circle cx="27.692" cy="34.265" r="0.383"></circle><circle cx="35.463" cy="26.687" r="0.478"></circle><path d="M54.52,43.233c-0.686,0-1.24-0.555-1.24-1.24c0-0.682,0.555-1.238,1.24-1.238c0.683,0,1.237,0.557,1.237,1.238   C55.757,42.679,55.202,43.233,54.52,43.233z"></path><circle cx="58.356" cy="41.993" r="1.144"></circle><circle cx="62.194" cy="41.993" r="1.049"></circle><circle cx="54.52" cy="38.079" r="1.24"></circle><circle cx="58.356" cy="38.079" r="1.144"></circle><circle cx="62.194" cy="38.079" r="1.049"></circle><circle cx="66.032" cy="41.993" r="0.953"></circle><path d="M70.729,41.993c0,0.473-0.384,0.861-0.859,0.861c-0.474,0-0.857-0.389-0.857-0.861s0.384-0.859,0.857-0.859   C70.345,41.134,70.729,41.521,70.729,41.993z"></path><circle cx="54.464" cy="34.265" r="1.049"></circle><circle cx="58.302" cy="34.265" r="0.954"></circle><circle cx="62.14" cy="34.265" r="0.859"></circle><circle cx="73.707" cy="41.993" r="0.763"></circle><circle cx="77.545" cy="41.993" r="0.669"></circle><circle cx="66.027" cy="38.079" r="0.667"></circle><circle cx="81.383" cy="41.993" r="0.572"></circle><circle cx="69.864" cy="38.079" r="0.573"></circle><circle cx="85.221" cy="41.993" r="0.479"></circle><circle cx="89.058" cy="41.995" r="0.383"></circle><circle cx="73.6" cy="38.079" r="0.383"></circle><circle cx="35.251" cy="38.079" r="1.144"></circle><circle cx="31.413" cy="38.079" r="1.049"></circle><circle cx="27.58" cy="38.079" r="0.668"></circle><circle cx="23.743" cy="38.079" r="0.573"></circle><circle cx="20.008" cy="38.079" r="0.383"></circle><circle cx="35.251" cy="42.019" r="1.144"></circle><circle cx="31.413" cy="42.019" r="1.049"></circle><circle cx="27.58" cy="42.019" r="0.668"></circle><circle cx="23.743" cy="42.019" r="0.573"></circle><circle cx="20.008" cy="42.021" r="0.383"></circle><circle cx="54.616" cy="30.349" r="1.048"></circle><path d="M59.117,30.349c0,0.369-0.3,0.67-0.669,0.67s-0.668-0.301-0.668-0.67c0-0.367,0.299-0.668,0.668-0.668   S59.117,29.981,59.117,30.349z"></path><circle cx="62.286" cy="30.349" r="0.573"></circle><circle cx="66.021" cy="30.35" r="0.384"></circle><circle cx="54.405" cy="26.712" r="0.573"></circle><circle cx="58.141" cy="26.712" r="0.383"></circle><circle cx="54.511" cy="45.658" r="1.476"></circle><circle cx="54.511" cy="53.083" r="1.475"></circle><circle cx="54.511" cy="57.024" r="1.475"></circle><circle cx="43.004" cy="57.024" r="1.475"></circle><circle cx="39.237" cy="26.58" r="0.886"></circle><circle cx="39.237" cy="30.425" r="1.004"></circle><circle cx="35.368" cy="76.399" r="0.574"></circle><circle cx="31.529" cy="76.399" r="0.479"></circle><circle cx="27.692" cy="76.397" r="0.383"></circle><circle cx="39.237" cy="76.5" r="1.003"></circle><circle cx="39.237" cy="34.271" r="1.12"></circle><circle cx="39.237" cy="38.079" r="1.24"></circle><path d="M34.107,72.329c0-0.629,0.512-1.143,1.143-1.143c0.633,0,1.146,0.514,1.146,1.143c0,0.635-0.513,1.146-1.146,1.146   C34.619,73.476,34.107,72.964,34.107,72.329z"></path><path d="M30.364,72.329c0-0.576,0.47-1.047,1.049-1.047c0.58,0,1.049,0.471,1.049,1.047c0,0.584-0.469,1.053-1.049,1.053   C30.834,73.382,30.364,72.913,30.364,72.329z"></path><path d="M26.912,72.329c0-0.365,0.301-0.666,0.669-0.666c0.369,0,0.667,0.301,0.667,0.666c0,0.371-0.298,0.67-0.667,0.67   C27.213,72.999,26.912,72.7,26.912,72.329z"></path><path d="M23.17,72.329c0-0.314,0.257-0.57,0.573-0.57s0.572,0.256,0.572,0.57c0,0.318-0.256,0.574-0.572,0.574   S23.17,72.647,23.17,72.329z"></path><path d="M20.008,71.948c0.212,0,0.384,0.17,0.384,0.381c0,0.215-0.172,0.385-0.384,0.385c-0.21,0-0.383-0.17-0.383-0.385   C19.625,72.118,19.798,71.948,20.008,71.948z"></path><path d="M39.237,71.093c-0.687,0-1.24,0.553-1.24,1.236c0,0.688,0.554,1.24,1.24,1.24c0.684,0,1.238-0.553,1.238-1.24   C40.476,71.646,39.921,71.093,39.237,71.093z"></path><circle cx="39.237" cy="41.963" r="1.356"></circle><circle cx="35.251" cy="49.446" r="1.144"></circle><circle cx="31.413" cy="49.446" r="1.049"></circle><circle cx="27.58" cy="49.446" r="0.668"></circle><circle cx="23.743" cy="49.446" r="0.573"></circle><circle cx="20.008" cy="49.446" r="0.383"></circle><path d="M39.237,48.032c-0.751,0-1.357,0.609-1.357,1.359c0,0.746,0.606,1.355,1.357,1.355c0.748,0,1.356-0.609,1.356-1.355   C40.594,48.642,39.985,48.032,39.237,48.032z"></path><circle cx="39.237" cy="45.809" r="1.476"></circle><circle cx="39.237" cy="53.404" r="1.474"></circle><circle cx="35.535" cy="57.193" r="1.239"></circle><circle cx="31.698" cy="57.192" r="1.144"></circle><circle cx="27.713" cy="57.192" r="0.764"></circle><circle cx="23.876" cy="57.192" r="0.668"></circle><circle cx="20.038" cy="57.192" r="0.573"></circle><circle cx="16.2" cy="57.192" r="0.479"></circle><circle cx="12.363" cy="57.193" r="0.382"></circle><circle cx="8.422" cy="57.191" r="0.317"></circle><circle cx="4.481" cy="57.193" r="0.28"></circle><circle cx="39.237" cy="57.192" r="1.475"></circle><circle cx="35.535" cy="60.981" r="1.238"></circle><circle cx="31.698" cy="60.981" r="1.144"></circle><path d="M26.949,60.981c0-0.422,0.343-0.762,0.766-0.762c0.42,0,0.762,0.34,0.762,0.762c0,0.424-0.342,0.764-0.762,0.764   C27.292,61.745,26.949,61.405,26.949,60.981z"></path><path d="M23.208,60.983c0-0.369,0.299-0.67,0.668-0.67s0.669,0.299,0.669,0.67c-0.001,0.367-0.3,0.666-0.669,0.666   S23.208,61.351,23.208,60.983z"></path><circle cx="20.038" cy="60.983" r="0.573"></circle><circle cx="16.2" cy="60.981" r="0.479"></circle><circle cx="12.363" cy="60.982" r="0.382"></circle><circle cx="8.422" cy="60.982" r="0.317"></circle><circle cx="4.481" cy="60.982" r="0.28"></circle><circle cx="73.796" cy="65.074" r="0.28"></circle><circle cx="73.796" cy="68.862" r="0.279"></circle><circle cx="39.236" cy="64.923" r="1.238"></circle><circle cx="35.487" cy="64.923" r="1.144"></circle><circle cx="31.503" cy="64.923" r="0.764"></circle><circle cx="27.665" cy="64.923" r="0.669"></circle><circle cx="23.828" cy="64.923" r="0.574"></circle><circle cx="19.989" cy="64.923" r="0.478"></circle><circle cx="16.151" cy="64.923" r="0.383"></circle><circle cx="12.212" cy="64.923" r="0.316"></circle><circle cx="8.271" cy="64.923" r="0.279"></circle><circle cx="39.236" cy="68.711" r="1.239"></circle><circle cx="35.487" cy="68.712" r="1.144"></circle><circle cx="31.503" cy="68.712" r="0.764"></circle><circle cx="27.665" cy="68.712" r="0.669"></circle><circle cx="23.828" cy="68.712" r="0.574"></circle><circle cx="19.989" cy="68.712" r="0.478"></circle><circle cx="16.151" cy="68.712" r="0.383"></circle><circle cx="12.212" cy="68.713" r="0.317"></circle><circle cx="39.237" cy="60.982" r="1.476"></circle></g></g>
</svg>
</g><g opacity="1" transform="rotate(0 219.2344 403.3355)">
<svg width="111.4353" height="24.5" x="219.2344" y="403.3355" version="1.1" preserveAspectRatio="none" viewBox="2.6 -28 163.36 35.92">
  <g transform="matrix(1 0 0 1 0 0)" class="text"><path id="id-6izo4zJp8" d="M5.60-28L5.60-16.76Q8.04-20.32 12.76-20.32L12.76-20.32Q17.08-20.32 19.76-17.32L19.76-17.32Q22.44-14.36 22.44-10L22.44-10Q22.44-5.64 19.76-2.68L19.76-2.68Q17.08 0.32 12.54 0.32Q8 0.32 5.60-3.20L5.60-3.20L5.60 0L2.60 0L2.60-28L5.60-28ZM12.36-2.40L12.36-2.40Q15.56-2.40 17.56-4.64L17.56-4.64Q19.44-6.76 19.44-10L19.44-10Q19.44-13.24 17.56-15.36L17.56-15.36Q15.56-17.60 12.36-17.60L12.36-17.60Q9.12-17.60 7.24-15.36L7.24-15.36Q5.44-13.24 5.44-10L5.44-10Q5.44-6.76 7.24-4.64L7.24-4.64Q9.12-2.40 12.36-2.40Z M39.28-2.40L39.28-2.40Q43.32-2.40 45.08-5.76L45.08-5.76L48.36-5.76Q47.32-3.04 45.06-1.36Q42.80 0.32 39.24 0.32L39.24 0.32Q34.72 0.32 31.88-2.68L31.88-2.68Q29.12-5.60 29.12-10L29.12-10Q29.12-14.44 31.76-17.32L31.76-17.32Q34.56-20.32 39.04-20.32L39.04-20.32Q43.52-20.32 46.32-17.32L46.32-17.32Q48.96-14.44 48.96-10L48.96-10L48.96-8.80L32.20-8.80Q32.52-6.04 34.40-4.24L34.40-4.24Q36.32-2.40 39.28-2.40ZM39.04-17.60L39.04-17.60Q36.28-17.60 34.40-15.88L34.40-15.88Q32.64-14.24 32.24-11.60L32.24-11.60L45.84-11.60Q45.44-14.24 43.68-15.88L43.68-15.88Q41.80-17.60 39.04-17.60Z M71.44-14.64L68.40-14.64Q68-17.76 63.38-17.76Q58.76-17.76 58.76-14.88L58.76-14.88Q58.76-13.68 59.74-13.06Q60.72-12.44 62.20-12.04Q63.68-11.64 65.42-11.30Q67.16-10.96 68.64-10.34Q70.12-9.72 71.10-8.64Q72.08-7.56 72.08-5.68L72.08-5.68Q72.08-2.76 69.88-1.22Q67.68 0.32 63.92 0.32L63.92 0.32Q59.92 0.32 57.56-1.68L57.56-1.68Q55.40-3.44 55.24-6.28L55.24-6.28L58.36-6.28Q58.64-3.52 61.48-2.56L61.48-2.56Q62.52-2.24 63.54-2.24Q64.56-2.24 65.44-2.36Q66.32-2.48 67.16-2.80L67.16-2.80Q69.08-3.56 69.08-5.40L69.08-5.40Q69.08-6.64 68.10-7.30Q67.12-7.96 65.64-8.38Q64.16-8.80 62.42-9.14Q60.68-9.48 59.20-10.08Q57.72-10.68 56.74-11.72Q55.76-12.76 55.76-14.60L55.76-14.60Q55.76-17.32 57.74-18.82Q59.72-20.32 63.60-20.32L63.60-20.32Q67.28-20.32 69.40-18.56L69.40-18.56Q71.16-17.08 71.44-14.64L71.44-14.64Z M85.08 0L82.08 0L82.08-17.36L78.00-17.36L78.00-20L82.08-20L82.08-27.16L85.08-27.16L85.08-20L89.68-20L89.68-17.36L85.08-17.36L85.08 0Z M112.48-20L112.48-16.80Q114.88-20.32 119.64-20.32L119.64-20.32Q123.96-20.32 126.64-17.32L126.64-17.32Q129.32-14.36 129.32-10L129.32-10Q129.32-5.64 126.64-2.68L126.64-2.68Q123.96 0.32 119.44 0.32Q114.92 0.32 112.48-3.24L112.48-3.24L112.48 7.92L109.48 7.92L109.48-20L112.48-20ZM119.24-17.60L119.24-17.60Q116.00-17.60 114.12-15.36L114.12-15.36Q112.32-13.24 112.32-10L112.32-10Q112.32-6.76 114.12-4.64L114.12-4.64Q116.00-2.40 119.24-2.40L119.24-2.40Q122.44-2.40 124.44-4.64L124.44-4.64Q126.32-6.76 126.32-10L126.32-10Q126.32-13.24 124.44-15.36L124.44-15.36Q122.44-17.60 119.24-17.60Z M137.24 0L137.24-20L140.24-20L140.24 0L137.24 0ZM137.12-27.28L140.36-27.28L140.36-23.36L137.12-23.36L137.12-27.28Z M165.44-20L158.20-10.32L165.96 0L162.12 0L156.48-8.16L150.80 0L147 0L154.72-10.32L147.48-20L151.32-20L156.48-12.44L161.60-20L165.44-20Z"/></g>
</svg>
</g><g opacity="1" transform="rotate(0 75.0857 311.3355)">
<svg width="399.7326" height="70" x="75.0857" y="311.3355" version="1.1" preserveAspectRatio="none" viewBox="2.88 -29.68 213.8 37.44">
  <g transform="matrix(1 0 0 1 0 0)" class="companyName"><path id="id-D6z1nYkh9" d="M15.60-21.84Q18.60-21.84 21.06-20.46Q23.52-19.08 24.92-16.58Q26.32-14.08 26.32-10.76L26.32-10.76Q26.32-7.44 24.92-4.94Q23.52-2.44 21.06-1.06Q18.60 0.32 15.60 0.32L15.60 0.32Q11.48 0.32 9.12-2.28L9.12-2.28L9.12 7.76L2.88 7.76L2.88-21.52L8.84-21.52L8.84-19.04Q11.16-21.84 15.60-21.84L15.60-21.84ZM14.52-4.80Q16.92-4.80 18.46-6.42Q20-8.04 20-10.76L20-10.76Q20-13.48 18.46-15.10Q16.92-16.72 14.52-16.72L14.52-16.72Q12.12-16.72 10.58-15.10Q9.04-13.48 9.04-10.76L9.04-10.76Q9.04-8.04 10.58-6.42Q12.12-4.80 14.52-4.80L14.52-4.80Z M43.56-21.84Q47.56-21.84 50.02-19.44Q52.48-17.04 52.48-12.32L52.48-12.32L52.48 0L46.24 0L46.24-11.36Q46.24-13.92 45.12-15.18Q44-16.44 41.88-16.44L41.88-16.44Q39.52-16.44 38.12-14.98Q36.72-13.52 36.72-10.64L36.72-10.64L36.72 0L30.48 0L30.48-29.68L36.72-29.68L36.72-19.28Q37.96-20.52 39.72-21.18Q41.48-21.84 43.56-21.84L43.56-21.84Z M68.60 0.32Q65.20 0.32 62.50-1.10Q59.80-2.52 58.28-5.04Q56.76-7.56 56.76-10.76L56.76-10.76Q56.76-13.96 58.28-16.48Q59.80-19 62.50-20.42Q65.20-21.84 68.60-21.84L68.60-21.84Q72-21.84 74.68-20.42Q77.36-19 78.88-16.48Q80.40-13.96 80.40-10.76L80.40-10.76Q80.40-7.56 78.88-5.04Q77.36-2.52 74.68-1.10Q72 0.32 68.60 0.32L68.60 0.32ZM68.60-4.80Q71-4.80 72.54-6.42Q74.08-8.04 74.08-10.76L74.08-10.76Q74.08-13.48 72.54-15.10Q71-16.72 68.60-16.72L68.60-16.72Q66.20-16.72 64.64-15.10Q63.08-13.48 63.08-10.76L63.08-10.76Q63.08-8.04 64.64-6.42Q66.20-4.80 68.60-4.80L68.60-4.80Z M96.76-5.44L98.44-1.04Q97.52-0.36 96.18-0.02Q94.84 0.32 93.36 0.32L93.36 0.32Q89.52 0.32 87.42-1.64Q85.32-3.60 85.32-7.40L85.32-7.40L85.32-16.24L82-16.24L82-21.04L85.32-21.04L85.32-26.28L91.56-26.28L91.56-21.04L96.92-21.04L96.92-16.24L91.56-16.24L91.56-7.48Q91.56-6.12 92.26-5.38Q92.96-4.64 94.24-4.64L94.24-4.64Q95.72-4.64 96.76-5.44L96.76-5.44Z M111.52 0.32Q108.12 0.32 105.42-1.10Q102.72-2.52 101.20-5.04Q99.68-7.56 99.68-10.76L99.68-10.76Q99.68-13.96 101.20-16.48Q102.72-19 105.42-20.42Q108.12-21.84 111.52-21.84L111.52-21.84Q114.92-21.84 117.60-20.42Q120.28-19 121.80-16.48Q123.32-13.96 123.32-10.76L123.32-10.76Q123.32-7.56 121.80-5.04Q120.28-2.52 117.60-1.10Q114.92 0.32 111.52 0.32L111.52 0.32ZM111.52-4.80Q113.92-4.80 115.46-6.42Q117-8.04 117-10.76L117-10.76Q117-13.48 115.46-15.10Q113.92-16.72 111.52-16.72L111.52-16.72Q109.12-16.72 107.56-15.10Q106-13.48 106-10.76L106-10.76Q106-8.04 107.56-6.42Q109.12-4.80 111.52-4.80L111.52-4.80Z M134.72 0.32Q132.04 0.32 129.48-0.34Q126.92-1 125.40-2L125.40-2L127.48-6.48Q128.92-5.56 130.96-4.98Q133-4.40 134.96-4.40L134.96-4.40Q138.92-4.40 138.92-6.36L138.92-6.36Q138.92-7.28 137.84-7.68Q136.76-8.08 134.52-8.36L134.52-8.36Q131.88-8.76 130.16-9.28Q128.44-9.80 127.18-11.12Q125.92-12.44 125.92-14.88L125.92-14.88Q125.92-16.92 127.10-18.50Q128.28-20.08 130.54-20.96Q132.80-21.84 135.88-21.84L135.88-21.84Q138.16-21.84 140.42-21.34Q142.68-20.84 144.16-19.96L144.16-19.96L142.08-15.52Q139.24-17.12 135.88-17.12L135.88-17.12Q133.88-17.12 132.88-16.56Q131.88-16 131.88-15.12L131.88-15.12Q131.88-14.12 132.96-13.72Q134.04-13.32 136.40-12.96L136.40-12.96Q139.04-12.52 140.72-12.02Q142.40-11.52 143.64-10.20Q144.88-8.88 144.88-6.52L144.88-6.52Q144.88-4.52 143.68-2.96Q142.48-1.40 140.18-0.54Q137.88 0.32 134.72 0.32L134.72 0.32Z M161.80-21.84Q165.80-21.84 168.26-19.44Q170.72-17.04 170.72-12.32L170.72-12.32L170.72 0L164.48 0L164.48-11.36Q164.48-13.92 163.36-15.18Q162.24-16.44 160.12-16.44L160.12-16.44Q157.76-16.44 156.36-14.98Q154.96-13.52 154.96-10.64L154.96-10.64L154.96 0L148.72 0L148.72-29.68L154.96-29.68L154.96-19.28Q156.20-20.52 157.96-21.18Q159.72-21.84 161.80-21.84L161.80-21.84Z M186.84 0.32Q183.44 0.32 180.74-1.10Q178.04-2.52 176.52-5.04Q175.00-7.56 175.00-10.76L175.00-10.76Q175.00-13.96 176.52-16.48Q178.04-19 180.74-20.42Q183.44-21.84 186.84-21.84L186.84-21.84Q190.24-21.84 192.92-20.42Q195.60-19 197.12-16.48Q198.64-13.96 198.64-10.76L198.64-10.76Q198.64-7.56 197.12-5.04Q195.60-2.52 192.92-1.10Q190.24 0.32 186.84 0.32L186.84 0.32ZM186.84-4.80Q189.24-4.80 190.78-6.42Q192.32-8.04 192.32-10.76L192.32-10.76Q192.32-13.48 190.78-15.10Q189.24-16.72 186.84-16.72L186.84-16.72Q184.44-16.72 182.88-15.10Q181.32-13.48 181.32-10.76L181.32-10.76Q181.32-8.04 182.88-6.42Q184.44-4.80 186.84-4.80L186.84-4.80Z M215.00-5.44L216.68-1.04Q215.76-0.36 214.42-0.02Q213.08 0.32 211.60 0.32L211.60 0.32Q207.76 0.32 205.66-1.64Q203.56-3.60 203.56-7.40L203.56-7.40L203.56-16.24L200.24-16.24L200.24-21.04L203.56-21.04L203.56-26.28L209.80-26.28L209.80-21.04L215.16-21.04L215.16-16.24L209.80-16.24L209.80-7.48Q209.80-6.12 210.50-5.38Q211.20-4.64 212.48-4.64L212.48-4.64Q213.96-4.64 215.00-5.44L215.00-5.44Z"/></g>
</svg>
</g></svg></svg>